<svg xmlns="http://www.w3.org/2000/svg" viewBox="0 0 1600 900" role="img" aria-label="kolm signal field">
  <defs>
    <linearGradient id="bg" x1="0" y1="0" x2="1" y2="1">
      <stop offset="0" stop-color="#0f130d"/>
      <stop offset=".5" stop-color="#050607"/>
      <stop offset="1" stop-color="#090b09"/>
    </linearGradient>
    <linearGradient id="railA" x1="80" y1="690" x2="1520" y2="170" gradientUnits="userSpaceOnUse">
      <stop offset="0" stop-color="#4c7dff" stop-opacity="0"/>
      <stop offset=".3" stop-color="#4c7dff" stop-opacity=".46"/>
      <stop offset=".62" stop-color="#3af2ff" stop-opacity=".5"/>
      <stop offset="1" stop-color="#ff6f3c" stop-opacity="0"/>
    </linearGradient>
    <linearGradient id="railB" x1="1500" y1="780" x2="120" y2="110" gradientUnits="userSpaceOnUse">
      <stop offset="0" stop-color="#ff6f3c" stop-opacity="0"/>
      <stop offset=".36" stop-color="#3af2ff" stop-opacity=".28"/>
      <stop offset=".72" stop-color="#4c7dff" stop-opacity=".34"/>
      <stop offset="1" stop-color="#4c7dff" stop-opacity="0"/>
    </linearGradient>
    <filter id="blur">
      <feGaussianBlur stdDeviation="8"/>
    </filter>
  </defs>
  <rect width="1600" height="900" fill="url(#bg)"/>
  <path d="M0 150h1600M0 450h1600M0 750h1600M220 0v900M800 0v900M1380 0v900" stroke="#faf2e1" stroke-opacity=".035"/>
  <path d="M-100 650C210 520 470 610 760 420S1220 200 1700 305" fill="none" stroke="url(#railA)" stroke-width="10" stroke-linecap="square" filter="url(#blur)" opacity=".95"/>
  <path d="M-90 705C260 595 540 700 890 500S1300 350 1690 410" fill="none" stroke="url(#railB)" stroke-width="5" stroke-linecap="square"/>
  <path d="M138 260h1324M138 640h1324" stroke="#4c7dff" stroke-opacity=".09"/>
  <path d="M270 208h1060M270 692h1060" stroke="#3af2ff" stroke-opacity=".055"/>
</svg>
