<svg xmlns="http://www.w3.org/2000/svg" viewBox="0 0 1600 900" role="img" aria-label="Kolm aurora brand field">
  <defs>
    <linearGradient id="night" x1="0" y1="0" x2="1" y2="1">
      <stop offset="0" stop-color="#05040a"/>
      <stop offset=".52" stop-color="#0b0713"/>
      <stop offset="1" stop-color="#05040a"/>
    </linearGradient>
    <linearGradient id="ribbonA" x1="80" y1="160" x2="1460" y2="590" gradientUnits="userSpaceOnUse">
      <stop offset="0" stop-color="#43e6a6" stop-opacity="0"/>
      <stop offset=".18" stop-color="#21f7b6" stop-opacity=".86"/>
      <stop offset=".42" stop-color="#04e7ff" stop-opacity=".95"/>
      <stop offset=".66" stop-color="#9b5cff" stop-opacity=".9"/>
      <stop offset=".84" stop-color="#ff6b5f" stop-opacity=".78"/>
      <stop offset="1" stop-color="#ff4f73" stop-opacity="0"/>
    </linearGradient>
    <linearGradient id="ribbonB" x1="0" y1="680" x2="1600" y2="180" gradientUnits="userSpaceOnUse">
      <stop offset="0" stop-color="#59d8ff" stop-opacity="0"/>
      <stop offset=".2" stop-color="#04e7ff" stop-opacity=".72"/>
      <stop offset=".42" stop-color="#9b5cff" stop-opacity=".86"/>
      <stop offset=".64" stop-color="#ff6b5f" stop-opacity=".76"/>
      <stop offset=".82" stop-color="#21f7b6" stop-opacity=".68"/>
      <stop offset="1" stop-color="#21f7b6" stop-opacity="0"/>
    </linearGradient>
    <linearGradient id="ribbonC" x1="1500" y1="820" x2="120" y2="280" gradientUnits="userSpaceOnUse">
      <stop offset="0" stop-color="#ffbf6b" stop-opacity="0"/>
      <stop offset=".2" stop-color="#ffbf6b" stop-opacity=".54"/>
      <stop offset=".42" stop-color="#ff6b5f" stop-opacity=".56"/>
      <stop offset=".68" stop-color="#21f7b6" stop-opacity=".58"/>
      <stop offset="1" stop-color="#04e7ff" stop-opacity="0"/>
    </linearGradient>
    <filter id="soft" x="-12%" y="-30%" width="124%" height="160%">
      <feGaussianBlur stdDeviation="18"/>
    </filter>
    <filter id="haze" x="-18%" y="-35%" width="136%" height="170%">
      <feGaussianBlur stdDeviation="44"/>
    </filter>
    <pattern id="grid" width="64" height="64" patternUnits="userSpaceOnUse">
      <path d="M64 0H0V64" fill="none" stroke="#ffe2f2" stroke-opacity=".08" stroke-width="1"/>
    </pattern>
  </defs>
  <rect width="1600" height="900" fill="url(#night)"/>
  <rect width="1600" height="900" fill="url(#grid)" opacity=".55"/>
  <g filter="url(#haze)" opacity=".55">
    <path d="M-120 396C138 226 306 232 536 348C816 490 978 470 1182 318C1352 190 1496 156 1720 204" fill="none" stroke="url(#ribbonA)" stroke-width="96" stroke-linecap="round"/>
    <path d="M-80 626C170 512 364 532 618 632C896 742 1136 646 1396 420C1512 320 1604 286 1700 306" fill="none" stroke="url(#ribbonB)" stroke-width="78" stroke-linecap="round"/>
  </g>
  <g filter="url(#soft)" opacity=".84">
    <path d="M-80 328C122 192 304 184 540 310C800 448 960 432 1176 284C1358 160 1498 146 1680 214" fill="none" stroke="url(#ribbonA)" stroke-width="44" stroke-linecap="round"/>
    <path d="M-52 594C174 470 392 506 636 602C910 710 1138 618 1394 392C1518 282 1618 252 1700 282" fill="none" stroke="url(#ribbonB)" stroke-width="38" stroke-linecap="round"/>
    <path d="M92 754C326 636 550 590 812 622C1084 656 1260 564 1470 380" fill="none" stroke="url(#ribbonC)" stroke-width="28" stroke-linecap="round"/>
  </g>
  <g opacity=".32">
    <path d="M80 710H1510" stroke="#ffe2f2" stroke-opacity=".16"/>
    <path d="M114 164L1512 702" stroke="#04e7ff" stroke-opacity=".12"/>
    <path d="M312 118L1388 782" stroke="#ff6b5f" stroke-opacity=".12"/>
  </g>
  <rect width="1600" height="900" fill="#05040a" opacity=".1"/>
</svg>
