<svg xmlns="http://www.w3.org/2000/svg" viewBox="0 0 1200 630" role="img" aria-label="Kolm verified AI artifacts for regulated apps">
  <defs>
    <linearGradient id="bg" x1="0" y1="0" x2="1" y2="1">
      <stop offset="0" stop-color="#05070c"/>
      <stop offset=".5" stop-color="#0b111b"/>
      <stop offset="1" stop-color="#07090f"/>
    </linearGradient>
    <linearGradient id="line" x1="110" y1="130" x2="1120" y2="512" gradientUnits="userSpaceOnUse">
      <stop offset="0" stop-color="#43e6a6" stop-opacity="0"/>
      <stop offset=".22" stop-color="#43e6a6"/>
      <stop offset=".52" stop-color="#59d8ff"/>
      <stop offset=".78" stop-color="#a78bfa"/>
      <stop offset="1" stop-color="#ff7aa5" stop-opacity="0"/>
    </linearGradient>
    <filter id="blur" x="-20%" y="-40%" width="140%" height="180%">
      <feGaussianBlur stdDeviation="28"/>
    </filter>
    <pattern id="grid" width="54" height="54" patternUnits="userSpaceOnUse">
      <path d="M54 0H0V54" fill="none" stroke="#d5e3ff" stroke-opacity=".08"/>
    </pattern>
  </defs>
  <rect width="1200" height="630" fill="url(#bg)"/>
  <rect width="1200" height="630" fill="url(#grid)" opacity=".55"/>
  <g filter="url(#blur)" opacity=".62">
    <path d="M-30 355C152 206 324 206 518 318C744 448 898 420 1088 256C1172 184 1230 166 1280 170" fill="none" stroke="url(#line)" stroke-width="86" stroke-linecap="round"/>
  </g>
  <path d="M-40 338C150 194 330 204 520 314C744 444 900 414 1088 250C1176 174 1230 160 1280 168" fill="none" stroke="url(#line)" stroke-width="30" stroke-linecap="round" opacity=".9"/>
  <g transform="translate(74 74)">
    <rect width="70" height="70" rx="16" fill="#0b121d" stroke="#59d8ff" stroke-opacity=".72" stroke-width="2"/>
    <path d="M24 18v34M49 19L31 35l18 16M31 35h20" fill="none" stroke="#8ef5d0" stroke-width="6" stroke-linecap="round" stroke-linejoin="round"/>
  </g>
  <text x="74" y="218" fill="#f6f8fb" font-family="-apple-system,BlinkMacSystemFont,'SF Pro Display','Segoe UI',Arial,sans-serif" font-size="82" font-weight="700">Kolm</text>
  <text x="74" y="304" fill="#f6f8fb" font-family="-apple-system,BlinkMacSystemFont,'SF Pro Display','Segoe UI',Arial,sans-serif" font-size="62" font-weight="700">Verified AI artifacts</text>
  <text x="74" y="376" fill="#d9e1ec" font-family="-apple-system,BlinkMacSystemFont,'SF Pro Text','Segoe UI',Arial,sans-serif" font-size="32" font-weight="500">for regulated apps.</text>
  <text x="76" y="484" fill="#9fb0c2" font-family="'SF Mono',Menlo,Consolas,monospace" font-size="22">compile in cloud  |  personalize on device  |  verify receipts</text>
  <g transform="translate(830 372)">
    <rect width="266" height="104" rx="8" fill="#0a1018" stroke="#d5e3ff" stroke-opacity=".18"/>
    <text x="22" y="38" fill="#43e6a6" font-family="'SF Mono',Menlo,Consolas,monospace" font-size="16">health-guide.kolm</text>
    <text x="22" y="70" fill="#a8b3c2" font-family="'SF Mono',Menlo,Consolas,monospace" font-size="14">signed | K=0.94 | local</text>
  </g>
</svg>
