<svg xmlns="http://www.w3.org/2000/svg" width="1200" height="630" viewBox="0 0 1200 630" role="img" aria-label="kolm private AI compiler">
  <rect width="1200" height="630" fill="#0b0d10"/>
  <path d="M0 90h1200M0 180h1200M0 270h1200M0 360h1200M0 450h1200M0 540h1200M120 0v630M240 0v630M360 0v630M480 0v630M600 0v630M720 0v630M840 0v630M960 0v630M1080 0v630" stroke="#ece7dc" stroke-opacity=".045"/>
  <rect x="72" y="68" width="1056" height="494" rx="14" fill="#11151b" stroke="#ece7dc" stroke-opacity=".13"/>
  <g transform="translate(96 92)">
    <rect x="0" y="0" width="58" height="58" rx="9" fill="#0b0d10" stroke="#ece7dc" stroke-opacity=".18"/>
    <path d="M17 11h20l8 8v30H17z" fill="#ece7dc"/>
    <path d="M37 11v9h8" fill="none" stroke="#0b0d10" stroke-width="2"/>
    <path d="M25 21v20M31 31l10-10M31 31l10 10" fill="none" stroke="#0b0d10" stroke-width="5" stroke-linecap="square" stroke-linejoin="miter"/>
    <path d="M10 18v-8h8M40 10h8v8M48 40v8h-8M18 48h-8v-8" fill="none" stroke="#4c7dff" stroke-width="2.4" stroke-linecap="square"/>
    <text x="78" y="37" fill="#ece7dc" font-family="-apple-system,BlinkMacSystemFont,'SF Pro Display','Inter','Segoe UI',system-ui,sans-serif" font-size="36" font-weight="780">kolm</text>
  </g>
  <text x="96" y="238" fill="#4c7dff" font-family="ui-monospace,'SF Mono',Menlo,Consolas,monospace" font-size="21" font-weight="720">COMPILER CACHE FOR INTELLIGENCE</text>
  <text x="96" y="328" fill="#ece7dc" font-family="-apple-system,BlinkMacSystemFont,'SF Pro Display','Inter','Segoe UI',system-ui,sans-serif" font-size="70" font-weight="820">Compile private AI</text>
  <text x="96" y="408" fill="#ece7dc" font-family="-apple-system,BlinkMacSystemFont,'SF Pro Display','Inter','Segoe UI',system-ui,sans-serif" font-size="70" font-weight="820">into signed artifacts.</text>
  <text x="98" y="476" fill="#a8adb7" font-family="-apple-system,BlinkMacSystemFont,'SF Pro Text','Inter','Segoe UI',system-ui,sans-serif" font-size="26">Task, policy, verifier, receipts, and local runtime boundary.</text>
  <g transform="translate(790 154)">
    <rect x="0" y="0" width="282" height="300" rx="10" fill="#0b0d10" stroke="#ece7dc" stroke-opacity=".16"/>
    <path d="M28 54V28h26M228 28h26v26M254 246v26h-26M54 272H28v-26" fill="none" stroke="#4c7dff" stroke-width="4" stroke-linecap="square"/>
    <path d="M96 70v126M124 133l64-60M124 133l64 60" fill="none" stroke="#ece7dc" stroke-width="18" stroke-linecap="square" stroke-linejoin="miter"/>
    <path d="M34 226h214M34 256h214" stroke="#ece7dc" stroke-opacity=".12"/>
    <text x="34" y="247" fill="#4c7dff" font-family="ui-monospace,'SF Mono',Menlo,Consolas,monospace" font-size="20">K 0.92</text>
    <text x="144" y="247" fill="#7ef0d2" font-family="ui-monospace,'SF Mono',Menlo,Consolas,monospace" font-size="20">signed</text>
    <text x="34" y="282" fill="#a8adb7" font-family="ui-monospace,'SF Mono',Menlo,Consolas,monospace" font-size="15">receipt evidence</text>
  </g>
</svg>
