<svg xmlns="http://www.w3.org/2000/svg" width="1200" height="630" viewBox="0 0 1200 630" role="img" aria-label="kolm — the AI compiler">
  <rect width="1200" height="630" fill="#0b0d10"/>
  <path d="M0 90h1200M0 180h1200M0 270h1200M0 360h1200M0 450h1200M0 540h1200M120 0v630M240 0v630M360 0v630M480 0v630M600 0v630M720 0v630M840 0v630M960 0v630M1080 0v630" stroke="#ece7dc" stroke-opacity=".045"/>
  <rect x="72" y="68" width="1056" height="494" rx="14" fill="#11151b" stroke="#ece7dc" stroke-opacity=".13"/>
  <g transform="translate(96 96)">
    <rect width="64" height="64" rx="14" fill="#0b0d10"/>
    <rect x="0.5" y="0.5" width="63" height="63" rx="13.5" fill="none" stroke="#ece7dc" stroke-opacity=".18"/>
    <path d="M22 14v36" stroke="#ece7dc" stroke-width="6" stroke-linecap="square"/>
    <path d="M44 18 28 33 46 50" fill="none" stroke="#ece7dc" stroke-width="6" stroke-linecap="square" stroke-linejoin="miter"/>
    <rect x="14" y="55" width="36" height="3" fill="#4c7dff"/>
    <text x="84" y="44" fill="#ece7dc" font-family="ui-monospace,'SF Mono',Menlo,Consolas,monospace" font-size="40" font-weight="600" letter-spacing="-0.5">kolm</text>
  </g>
  <text x="96" y="244" fill="#4c7dff" font-family="ui-monospace,'SF Mono',Menlo,Consolas,monospace" font-size="20" font-weight="600" letter-spacing="2">THE AI COMPILER</text>
  <text x="96" y="332" fill="#ece7dc" font-family="-apple-system,BlinkMacSystemFont,'SF Pro Display','Inter','Segoe UI',system-ui,sans-serif" font-size="68" font-weight="700">Your own AI,</text>
  <text x="96" y="410" fill="#ece7dc" font-family="-apple-system,BlinkMacSystemFont,'SF Pro Display','Inter','Segoe UI',system-ui,sans-serif" font-size="68" font-weight="700">in a single file.</text>
  <text x="98" y="478" fill="#a8adb7" font-family="-apple-system,BlinkMacSystemFont,'SF Pro Text','Inter','Segoe UI',system-ui,sans-serif" font-size="24">Compile any AI task into a signed .kolm artifact that runs anywhere.</text>
  <g transform="translate(820 168)">
    <rect width="252" height="270" rx="14" fill="#0b0d10" stroke="#ece7dc" stroke-opacity=".16"/>
    <text x="20" y="40" fill="#737c73" font-family="ui-monospace,'SF Mono',Menlo,Consolas,monospace" font-size="11" letter-spacing="1.5">.KOLM ARTIFACT</text>
    <path d="M20 56h212" stroke="#ece7dc" stroke-opacity=".10"/>
    <text x="20" y="92" fill="#ece7dc" font-family="ui-monospace,'SF Mono',Menlo,Consolas,monospace" font-size="14">model.gguf</text>
    <text x="20" y="118" fill="#ece7dc" font-family="ui-monospace,'SF Mono',Menlo,Consolas,monospace" font-size="14">adapter.bin</text>
    <text x="20" y="144" fill="#ece7dc" font-family="ui-monospace,'SF Mono',Menlo,Consolas,monospace" font-size="14">recipes.json</text>
    <text x="20" y="170" fill="#ece7dc" font-family="ui-monospace,'SF Mono',Menlo,Consolas,monospace" font-size="14">recall.sqlite</text>
    <text x="20" y="196" fill="#ece7dc" font-family="ui-monospace,'SF Mono',Menlo,Consolas,monospace" font-size="14">verifier.json</text>
    <path d="M20 218h212" stroke="#ece7dc" stroke-opacity=".10"/>
    <text x="20" y="248" fill="#7ef0d2" font-family="ui-monospace,'SF Mono',Menlo,Consolas,monospace" font-size="14">receipt.sig</text>
    <text x="170" y="248" fill="#4c7dff" font-family="ui-monospace,'SF Mono',Menlo,Consolas,monospace" font-size="14">K 0.92</text>
  </g>
</svg>
