<svg xmlns="http://www.w3.org/2000/svg" viewBox="0 0 1200 630" role="img" aria-label="Kolm verified AI artifacts for regulated apps">
  <defs>
    <linearGradient id="bg" x1="0" y1="0" x2="1" y2="1">
      <stop offset="0" stop-color="#05040a"/>
      <stop offset=".5" stop-color="#0b0713"/>
      <stop offset="1" stop-color="#05040a"/>
    </linearGradient>
    <linearGradient id="ribbon" x1="40" y1="170" x2="1160" y2="520" gradientUnits="userSpaceOnUse">
      <stop offset="0" stop-color="#43e6a6" stop-opacity="0"/>
      <stop offset=".18" stop-color="#21f7b6"/>
      <stop offset=".42" stop-color="#04e7ff"/>
      <stop offset=".64" stop-color="#9b5cff"/>
      <stop offset=".82" stop-color="#ff6b5f"/>
      <stop offset="1" stop-color="#ff4f73" stop-opacity="0"/>
    </linearGradient>
    <linearGradient id="kA" x1="116" y1="126" x2="178" y2="174" gradientUnits="userSpaceOnUse">
      <stop offset="0" stop-color="#21f7b6"/>
      <stop offset=".42" stop-color="#04e7ff"/>
      <stop offset=".72" stop-color="#ffbf6b"/>
      <stop offset="1" stop-color="#ff6b5f"/>
    </linearGradient>
    <linearGradient id="kB" x1="118" y1="184" x2="178" y2="232" gradientUnits="userSpaceOnUse">
      <stop offset="0" stop-color="#04e7ff"/>
      <stop offset=".44" stop-color="#9b5cff"/>
      <stop offset="1" stop-color="#ff4f73"/>
    </linearGradient>
    <filter id="blur" x="-20%" y="-40%" width="140%" height="180%">
      <feGaussianBlur stdDeviation="32"/>
    </filter>
    <pattern id="grid" width="56" height="56" patternUnits="userSpaceOnUse">
      <path d="M56 0H0V56" fill="none" stroke="#ffe2f2" stroke-opacity=".075"/>
    </pattern>
  </defs>
  <rect width="1200" height="630" fill="url(#bg)"/>
  <rect width="1200" height="630" fill="url(#grid)" opacity=".55"/>
  <g filter="url(#blur)" opacity=".55">
    <path d="M-60 382C130 212 330 224 536 338C760 462 914 420 1100 260C1184 188 1230 168 1280 170" fill="none" stroke="url(#ribbon)" stroke-width="88" stroke-linecap="round"/>
  </g>
  <path d="M-70 356C132 202 328 212 536 330C762 458 920 414 1100 254C1184 178 1232 160 1280 166" fill="none" stroke="url(#ribbon)" stroke-width="28" stroke-linecap="round" opacity=".82"/>
  <g transform="translate(74 80)">
    <path d="M70 0H28C10 0 0 10 0 28v130c0 18 10 28 28 28h42" fill="none" stroke="#f6f8fb" stroke-width="18" stroke-linecap="square" stroke-linejoin="round"/>
    <path d="M90 93L166 17" fill="none" stroke="url(#kA)" stroke-width="20" stroke-linecap="square"/>
    <path d="M90 93L166 169" fill="none" stroke="url(#kB)" stroke-width="20" stroke-linecap="square"/>
    <path d="M44 63h34" stroke="#04e7ff" stroke-width="9" stroke-linecap="round"/>
    <path d="M44 93h30" stroke="#21f7b6" stroke-width="9" stroke-linecap="round"/>
    <path d="M44 123h34" stroke="#ff6b5f" stroke-width="9" stroke-linecap="round"/>
  </g>
  <text x="270" y="184" fill="#f6f8fb" font-family="-apple-system,BlinkMacSystemFont,'SF Pro Display','Segoe UI',Arial,sans-serif" font-size="80" font-weight="560" letter-spacing="14">kolm</text>
  <text x="276" y="232" fill="#ffbf6b" font-family="'SF Mono',Menlo,Consolas,monospace" font-size="18" letter-spacing="8">VERIFIED AI ARTIFACTS</text>
  <text x="76" y="402" fill="#f6f8fb" font-family="-apple-system,BlinkMacSystemFont,'SF Pro Display','Segoe UI',Arial,sans-serif" font-size="56" font-weight="700">Private AI artifacts</text>
  <text x="76" y="470" fill="#d9e1ec" font-family="-apple-system,BlinkMacSystemFont,'SF Pro Text','Segoe UI',Arial,sans-serif" font-size="30" font-weight="500">Compile in cloud. Personalize on device. Verify receipts.</text>
  <text x="78" y="552" fill="#9fb0c2" font-family="'SF Mono',Menlo,Consolas,monospace" font-size="18">Core ML | LiteRT | ONNX | private registries | signed manifests</text>
</svg>
