<svg xmlns="http://www.w3.org/2000/svg" viewBox="0 0 1600 900" role="img" aria-label="kolm compile and distill pipeline">
  <defs>
    <linearGradient id="bg" x1="0" y1="0" x2="1" y2="1">
      <stop offset="0" stop-color="#11130f"/>
      <stop offset="1" stop-color="#050607"/>
    </linearGradient>
    <linearGradient id="signal" x1="220" y1="680" x2="1380" y2="220" gradientUnits="userSpaceOnUse">
      <stop offset="0" stop-color="#4c7dff"/>
      <stop offset=".5" stop-color="#3af2ff"/>
      <stop offset="1" stop-color="#ff6f3c"/>
    </linearGradient>
  </defs>
  <rect width="1600" height="900" fill="url(#bg)"/>
  <path d="M210 450h1180" stroke="#faf2e1" stroke-opacity=".08" stroke-width="2"/>
  <path d="M330 450h940" stroke="url(#signal)" stroke-width="5"/>

  <g transform="translate(150 250)">
    <rect width="300" height="400" rx="12" fill="#0b0f10" stroke="#faf2e1" stroke-opacity=".14"/>
    <text x="34" y="68" fill="#737c73" font-family="ui-monospace,'SF Mono',Consolas,monospace" font-size="18">INPUTS</text>
    <text x="34" y="126" fill="#faf2e1" font-family="-apple-system,BlinkMacSystemFont,'SF Pro Display','Inter',system-ui,sans-serif" font-size="34" font-weight="760">task + data</text>
    <path d="M34 176h232M34 222h190M34 268h214" stroke="#faf2e1" stroke-opacity=".16" stroke-width="14"/>
    <text x="34" y="348" fill="#b5bdb1" font-family="ui-monospace,'SF Mono',Consolas,monospace" font-size="18">examples.jsonl</text>
  </g>

  <g transform="translate(530 250)">
    <rect width="360" height="400" rx="12" fill="#101514" stroke="#faf2e1" stroke-opacity=".14"/>
    <text x="34" y="68" fill="#737c73" font-family="ui-monospace,'SF Mono',Consolas,monospace" font-size="18">TEACHER</text>
    <text x="34" y="126" fill="#faf2e1" font-family="-apple-system,BlinkMacSystemFont,'SF Pro Display','Inter',system-ui,sans-serif" font-size="34" font-weight="760">verified labels</text>
    <rect x="34" y="172" width="292" height="42" rx="6" fill="#050607" stroke="#faf2e1" stroke-opacity=".10"/>
    <rect x="34" y="232" width="292" height="42" rx="6" fill="#050607" stroke="#faf2e1" stroke-opacity=".10"/>
    <rect x="34" y="292" width="292" height="42" rx="6" fill="#050607" stroke="#faf2e1" stroke-opacity=".10"/>
    <path d="M58 193h190M58 253h220M58 313h168" stroke="url(#signal)" stroke-width="6"/>
  </g>

  <g transform="translate(970 250)">
    <rect width="480" height="400" rx="12" fill="#faf2e1"/>
    <text x="42" y="78" fill="#070809" font-family="ui-monospace,'SF Mono',Consolas,monospace" font-size="18">OUTPUT</text>
    <text x="42" y="142" fill="#070809" font-family="-apple-system,BlinkMacSystemFont,'SF Pro Display','Inter',system-ui,sans-serif" font-size="44" font-weight="800">specialist.kolm</text>
    <path d="M42 208h396M42 270h396" stroke="#070809" stroke-opacity=".15"/>
    <text x="42" y="196" fill="#070809" font-family="ui-monospace,'SF Mono',Consolas,monospace" font-size="22">adapter trained</text>
    <text x="42" y="258" fill="#070809" font-family="ui-monospace,'SF Mono',Consolas,monospace" font-size="22">manifest signed</text>
    <text x="42" y="320" fill="#070809" font-family="ui-monospace,'SF Mono',Consolas,monospace" font-size="22">runtime egress: zero</text>
  </g>
</svg>
