<svg xmlns="http://www.w3.org/2000/svg" viewBox="0 0 1600 900" role="img" aria-label="kolm artifact horizon">
  <defs>
    <linearGradient id="bg" x1="0" y1="0" x2="0" y2="1">
      <stop offset="0" stop-color="#101514"/>
      <stop offset=".62" stop-color="#050607"/>
      <stop offset="1" stop-color="#050605"/>
    </linearGradient>
    <linearGradient id="signal" x1="220" y1="650" x2="1380" y2="250" gradientUnits="userSpaceOnUse">
      <stop offset="0" stop-color="#4c7dff"/>
      <stop offset=".52" stop-color="#3af2ff"/>
      <stop offset="1" stop-color="#ff6f3c"/>
    </linearGradient>
  </defs>
  <rect width="1600" height="900" fill="url(#bg)"/>
  <path d="M130 610 C420 490 650 560 870 456 C1110 340 1280 396 1470 272" fill="none" stroke="url(#signal)" stroke-width="6" stroke-linecap="square"/>
  <path d="M0 690h1600" stroke="#faf2e1" stroke-opacity=".08"/>
  <g transform="translate(280 210)">
    <rect width="420" height="420" rx="14" fill="#faf2e1"/>
    <rect x="40" y="42" width="100" height="100" rx="8" fill="#050607"/>
    <text x="68" y="108" fill="#faf2e1" font-family="ui-monospace,'SF Mono',Consolas,monospace" font-size="34" font-weight="800">.k</text>
    <text x="164" y="84" fill="#070809" font-family="-apple-system,BlinkMacSystemFont,'SF Pro Display','Inter',system-ui,sans-serif" font-size="34" font-weight="800">private model</text>
    <text x="164" y="122" fill="#40443d" font-family="ui-monospace,'SF Mono',Consolas,monospace" font-size="17">owned by the app</text>
    <path d="M44 206h332M44 264h332M44 322h332" stroke="#070809" stroke-opacity=".15"/>
    <text x="44" y="194" fill="#070809" font-family="ui-monospace,'SF Mono',Consolas,monospace" font-size="20">compile once</text>
    <text x="44" y="252" fill="#070809" font-family="ui-monospace,'SF Mono',Consolas,monospace" font-size="20">personalize locally</text>
    <text x="44" y="310" fill="#070809" font-family="ui-monospace,'SF Mono',Consolas,monospace" font-size="20">verify every output</text>
  </g>
  <g transform="translate(820 304)">
    <text x="0" y="0" fill="#faf2e1" font-family="-apple-system,BlinkMacSystemFont,'SF Pro Display','Inter',system-ui,sans-serif" font-size="64" font-weight="780">The app owns the AI.</text>
    <text x="2" y="64" fill="#b5bdb1" font-family="-apple-system,BlinkMacSystemFont,'SF Pro Text','Inter',system-ui,sans-serif" font-size="28">Not a prompt chain. Not a rented endpoint. A signed local artifact with a measurable ship gate.</text>
  </g>
</svg>
