<svg xmlns="http://www.w3.org/2000/svg" viewBox="0 0 1600 900" role="img" aria-label=".kolm artifact system diagram">
  <defs>
    <linearGradient id="bg" x1="0" y1="0" x2="1" y2="1">
      <stop offset="0" stop-color="#101514"/>
      <stop offset="1" stop-color="#050607"/>
    </linearGradient>
    <linearGradient id="signal" x1="190" y1="720" x2="1390" y2="180" gradientUnits="userSpaceOnUse">
      <stop offset="0" stop-color="#4c7dff"/>
      <stop offset=".52" stop-color="#3af2ff"/>
      <stop offset="1" stop-color="#ff6f3c"/>
    </linearGradient>
  </defs>
  <rect width="1600" height="900" fill="url(#bg)"/>
  <path d="M0 160h1600M0 740h1600M160 0v900M1440 0v900" stroke="#faf2e1" stroke-opacity=".05"/>
  <rect x="170" y="120" width="1260" height="660" rx="12" fill="#0b0f10" stroke="#faf2e1" stroke-opacity=".14"/>
  <path d="M170 190h1260" stroke="#faf2e1" stroke-opacity=".08"/>
  <circle cx="214" cy="155" r="7" fill="#4c7dff"/>
  <circle cx="244" cy="155" r="7" fill="#3af2ff"/>
  <circle cx="274" cy="155" r="7" fill="#ff6f3c"/>
  <text x="320" y="164" fill="#faf2e1" font-family="ui-monospace,'SF Mono',Consolas,monospace" font-size="22">issue-triage.kolm</text>

  <g transform="translate(250 270)">
    <rect width="440" height="360" rx="10" fill="#faf2e1"/>
    <rect x="26" y="30" width="102" height="102" rx="8" fill="#050607"/>
    <text x="55" y="96" fill="#faf2e1" font-family="ui-monospace,'SF Mono',Consolas,monospace" font-size="34" font-weight="800">.k</text>
    <text x="154" y="66" fill="#050607" font-family="-apple-system,BlinkMacSystemFont,'SF Pro Display','Inter',system-ui,sans-serif" font-size="34" font-weight="780">signed artifact</text>
    <text x="154" y="105" fill="#40443d" font-family="ui-monospace,'SF Mono',Consolas,monospace" font-size="17">manifest + weights + index</text>
    <path d="M34 176h372M34 226h372M34 276h372" stroke="#050607" stroke-opacity=".16"/>
    <text x="38" y="164" fill="#050607" font-family="ui-monospace,'SF Mono',Consolas,monospace" font-size="18">model.gguf</text>
    <text x="38" y="214" fill="#050607" font-family="ui-monospace,'SF Mono',Consolas,monospace" font-size="18">adapter.bin</text>
    <text x="38" y="264" fill="#050607" font-family="ui-monospace,'SF Mono',Consolas,monospace" font-size="18">verifier.json</text>
    <text x="38" y="314" fill="#050607" font-family="ui-monospace,'SF Mono',Consolas,monospace" font-size="18">receipt.sig</text>
  </g>

  <g transform="translate(820 250)">
    <rect width="420" height="74" rx="8" fill="#101514" stroke="#faf2e1" stroke-opacity=".12"/>
    <rect y="132" width="420" height="74" rx="8" fill="#101514" stroke="#faf2e1" stroke-opacity=".12"/>
    <rect y="264" width="420" height="74" rx="8" fill="#101514" stroke="#faf2e1" stroke-opacity=".12"/>
    <text x="28" y="46" fill="#faf2e1" font-family="ui-monospace,'SF Mono',Consolas,monospace" font-size="20">compile in VPC</text>
    <text x="28" y="178" fill="#faf2e1" font-family="ui-monospace,'SF Mono',Consolas,monospace" font-size="20">verify K-score</text>
    <text x="28" y="310" fill="#faf2e1" font-family="ui-monospace,'SF Mono',Consolas,monospace" font-size="20">run locally</text>
    <path d="M210 74v58M210 206v58" stroke="url(#signal)" stroke-width="4"/>
  </g>

  <path d="M690 450h120" stroke="url(#signal)" stroke-width="5"/>
  <text x="822" y="652" fill="#b5bdb1" font-family="-apple-system,BlinkMacSystemFont,'SF Pro Text','Inter',system-ui,sans-serif" font-size="26">One file carries the model, recall index, verifier, manifest, and receipt chain.</text>
</svg>
